<?xml version="1.0" encoding="UTF-8"?>
<svg width="18px" height="17px" viewBox="0 0 18 17" version="1.1" xmlns="http://www.w3.org/2000/svg" xmlns:xlink="http://www.w3.org/1999/xlink">
    <!-- Generator: Sketch 59.1 (86144) - https://sketch.com -->
    <title>星形</title>
    <desc>Created with Sketch.</desc>
    <g id="患者360" stroke="none" stroke-width="1" fill="none" fill-rule="evenodd" stroke-linecap="square" stroke-linejoin="round">
        <g id="02-患者卡片" transform="translate(-729.000000, -284.000000)" fill="#FF8C00" stroke="#FF8C00" stroke-width="2">
            <g id="编组-2备份-7" transform="translate(401.000000, 112.000000)">
                <path d="M336.999985,185.34559 L332.049007,187.999931 C331.951658,188.052123 331.830432,188.015515 331.77824,187.918166 C331.758034,187.880477 331.750441,187.837303 331.756574,187.794981 L332.457561,182.957944 L332.457561,182.957944 L329.010272,178.716834 C328.940601,178.63112 328.953607,178.505157 329.03932,178.435487 C329.066015,178.413788 329.097856,178.399343 329.131764,178.393545 L333.721819,177.608782 L333.721819,177.608782 L336.83503,173.067917 C336.89749,172.976815 337.021976,172.953596 337.113078,173.016055 C337.133414,173.029998 337.150997,173.047581 337.16494,173.067917 L340.278151,177.608782 L340.278151,177.608782 L344.868205,178.393545 C344.977082,178.41216 345.050255,178.515512 345.03164,178.62439 C345.025842,178.658299 345.011397,178.690139 344.989698,178.716834 L341.542408,182.957944 L341.542408,182.957944 L342.415701,187.787001 C342.435357,187.895695 342.363178,187.999743 342.254484,188.0194 C342.211013,188.027261 342.166163,188.020509 342.126934,188.000197 L336.999985,185.34559 L336.999985,185.34559 Z" id="星形"></path>
            </g>
        </g>
    </g>
</svg>