<?xml version="1.0" encoding="UTF-8"?>
<svg width="14px" height="14px" viewBox="0 0 14 14" version="1.1" xmlns="http://www.w3.org/2000/svg" xmlns:xlink="http://www.w3.org/1999/xlink">
    <!-- Generator: Sketch 59.1 (86144) - https://sketch.com -->
    <title>形状结合</title>
    <desc>Created with Sketch.</desc>
    <g id="患者360" stroke="none" stroke-width="1" fill="none" fill-rule="evenodd">
        <g id="02-患者卡片" transform="translate(-42.000000, -281.000000)" fill="#7E89A4" fill-rule="nonzero">
            <g id="编组-2备份-6" transform="translate(24.000000, 112.000000)">
                <path d="M28.0625,169 C28.5457492,169 28.9375,169.391751 28.9375,169.875 L28.9375,169.875 L28.9375,170.75 L28.9375,170.75 L31.125,170.75 C31.6082492,170.75 32,171.141751 32,171.625 L32,182.125 C32,182.608249 31.6082492,183 31.125,183 L18.875,183 C18.3917508,183 18,182.608249 18,182.125 L18,171.625 C18,171.141751 18.3917508,170.75 18.875,170.75 L21.0625,170.75 L21.0625,169.875 C21.0625,169.391751 21.4542508,169 21.9375,169 C22.4207492,169 22.8125,169.391751 22.8125,169.875 L22.8125,169.875 L22.8125,170.75 L22.8125,170.75 L27.1875,170.75 L27.1875,169.875 C27.1875,169.391751 27.5792508,169 28.0625,169 Z M19.75,175.999 L19.75,181.25 L30.25,181.25 L30.25,176 L19.75,175.999 Z M30.25,172.5 L19.75,172.5 L19.75,174.249 L30.25,174.25 L30.25,172.5 Z" id="形状结合"></path>
            </g>
        </g>
    </g>
</svg>