<?xml version="1.0" encoding="UTF-8"?>
<svg width="40px" height="40px" viewBox="0 0 40 40" version="1.1" xmlns="http://www.w3.org/2000/svg" xmlns:xlink="http://www.w3.org/1999/xlink">
    <!-- Generator: Sketch 59.1 (86144) - https://sketch.com -->
    <title>患者-男</title>
    <desc>Created with Sketch.</desc>
    <defs>
        <linearGradient x1="41.3671875%" y1="3.43263198%" x2="41.3671875%" y2="96.421875%" id="linearGradient-1">
            <stop stop-color="#ACD3FF" offset="0%"></stop>
            <stop stop-color="#9ECAFB" offset="100%"></stop>
        </linearGradient>
    </defs>
    <g id="患者360" stroke="none" stroke-width="1" fill="none" fill-rule="evenodd">
        <g id="02-患者卡片" transform="translate(-1171.000000, -349.000000)">
            <g id="编组-2备份-15" transform="translate(1155.000000, 332.000000)">
                <g id="患者-男" transform="translate(16.000000, 17.000000)">
                    <circle id="底框" fill="url(#linearGradient-1)" cx="19.9686596" cy="19.9439489" r="19.9180328"></circle>
                    <path d="M15.6201784,23.4115444 C15.9193641,28.4173173 15.7585402,31.3101153 15.1377069,32.0899384 C16.6054486,33.9711791 18.2931434,35.653406 20.2007915,37.1366191 C22.5931338,35.0065904 24.216644,33.3243635 25.071322,32.0899384 C24.7094486,31.4775552 24.604511,28.5847572 24.7565092,23.4115444 L15.6201784,23.4115444 Z" id="脖子" fill="#FDD1C1"></path>
                    <path d="M24.7565092,30.4354735 C28.8529103,31.8282457 31.999549,32.9772348 34.1964253,33.882441 C30.5817321,37.5724343 25.5425721,39.8619817 19.9686596,39.8619817 C14.3594117,39.8619817 9.29171771,37.5433134 5.67174946,33.8121486 C7.74885568,32.8832035 11.0650384,31.7573463 15.6201784,30.4354735 L15.6201784,30.4354735 L20.1104197,34.155952 Z" id="衣服" fill="#B3DDBB"></path>
                    <polygon id="衣领" fill="#FFFFFF" points="14.1465767 30.87693 17.6552126 37.2655497 20.335704 34.1013278 15.9625519 30.1922613"></polygon>
                    <polygon id="衣领" fill="#FFFFFF" transform="translate(23.135547, 33.728905) scale(-1, 1) translate(-23.135547, -33.728905) " points="20.0409836 30.9726594 23.6754018 37.2655497 26.2301109 34.155952 21.9085575 30.1922613"></polygon>
                    <path d="M11.8174254,10.9587289 C11.4373049,13.0819833 11.4379366,15.6046011 11.7120389,16.6808835 C12.251394,16.6109715 12.7376517,16.9735108 13.170812,17.7685015 C13.1950026,15.4533036 13.4338039,14.2016026 13.8872159,14.0133986 C14.567334,13.7310926 16.2772991,13.536581 17.5037031,14.0133986 C18.730107,14.4902162 19.6154692,15.6046011 21.2016836,15.6046011 C22.1671768,15.6046011 23.8228036,15.2121249 25.0488623,14.8449867 C25.8371027,14.6089514 26.4477906,14.3833889 26.5833863,14.2793257 C26.5722897,14.9247333 26.651053,16.0045254 26.8196761,17.5187021 C26.940847,17.6403717 27.0544683,17.6403717 27.16054,17.5187021 C27.277622,17.384403 28.026104,17.4589 28.2931533,17.5187021 C28.3890084,17.5401675 28.4824191,14.6261166 28.2521093,13.1694306 C26.8831884,12.6501427 26.3269474,12.7266967 26.5833863,13.3990927 C19.7059893,11.9417496 16.1455985,11.2130781 15.9022141,11.2130781 C15.5371374,11.2130781 12.1975458,8.83547455 11.8174254,10.9587289 Z" id="头发" fill="#5B6688"></path>
                    <path d="M11.3392008,18.050283 C11.9444335,16.8399591 12.6649612,16.1898041 13.4816369,16.5294525 C14.2983127,16.8691008 13.9829977,18.8396022 13.1830219,20.2101774 C12.383046,21.5807526 12.0082889,22.1523784 11.2777781,22.1522868 C10.790771,22.1522257 10.5936143,21.5047516 10.6863082,20.2098644 C10.7180814,19.5770261 10.9357123,18.8571656 11.3392008,18.050283 Z" id="耳朵" fill="#FDD1C1" transform="translate(12.311991, 19.296013) scale(-1, 1) rotate(-7.000000) translate(-12.311991, -19.296013) "></path>
                    <path d="M26.6516042,18.050283 C27.256837,16.8399591 27.9773646,16.1898041 28.7940404,16.5294525 C29.6107161,16.8691008 29.2954012,18.8396022 28.4954253,20.2101774 C27.6954494,21.5807526 27.3206923,22.1523784 26.5901816,22.1522868 C26.1031744,22.1522257 25.9060178,21.5047516 25.9987116,20.2098644 C26.0304848,19.5770261 26.2481157,18.8571656 26.6516042,18.050283 Z" id="耳朵" fill="#FDD1C1" transform="translate(27.624394, 19.296013) rotate(-7.000000) translate(-27.624394, -19.296013) "></path>
                    <path d="M20.0389369,8.66948931 C23.9720897,8.66948931 27.16054,11.8579396 27.16054,15.7910925 L27.16054,20.9210022 C27.16054,24.9708527 24.0721897,28.3523803 20.0389369,28.7186596 L20.0389369,28.7186596 L20.0389369,28.7186596 C16.005684,28.3523803 12.9173337,24.9708527 12.9173337,20.9210022 L12.9173337,15.7910925 C12.9173337,11.8579396 16.1057841,8.66948931 20.0389369,8.66948931 Z" id="脸" fill="#FFE6D0"></path>
                    <path d="M11.9156083,10.5888596 C11.6397019,11.1480416 11.6021002,14.4043855 11.9156083,14.5449523 C14.7413242,15.8119108 16.8766213,13.9132976 18.4905679,14.229125 C20.1045145,14.5449523 23.7007743,16.2601992 25.071322,16.2601992 C26.4418698,16.2601992 26.8140336,15.1279098 27.16054,14.8316181 C27.1494434,15.5507209 27.0358221,16.5446557 26.8196761,17.8134224 C27.1210448,17.4335102 27.2717292,17.136525 27.2717292,16.9224668 C27.2717292,13.528237 28.2825221,13.8545009 28.2514053,13.2362153 C28.0526389,9.28675043 27.4933025,8.3215825 25.2673781,5.69131964 C22.6011953,8.43812762 19.3479394,6.63671155 16.5043965,7.3363741 C13.6277744,8.04417589 12.4845196,9.43584181 11.9156083,10.5888596 Z" id="头发" fill="#5B6688"></path>
                </g>
            </g>
        </g>
    </g>
</svg>