<?xml version="1.0" encoding="UTF-8"?>
<svg width="18px" height="17px" viewBox="0 0 18 17" version="1.1" xmlns="http://www.w3.org/2000/svg" xmlns:xlink="http://www.w3.org/1999/xlink">
    <!-- Generator: Sketch 59.1 (86144) - https://sketch.com -->
    <title>收藏</title>
    <desc>Created with Sketch.</desc>
    <g id="患者360" stroke="none" stroke-width="1" fill="none" fill-rule="evenodd" stroke-linecap="square" stroke-linejoin="round">
        <g id="02-患者卡片" transform="translate(-1725.000000, -15.000000)" stroke="#FFFFFF" stroke-width="2">
            <path d="M1733.99998,28.3455896 L1729.04901,30.9999315 C1728.95166,31.0521226 1728.83043,31.015515 1728.77824,30.9181661 C1728.75803,30.8804768 1728.75044,30.8373031 1728.75657,30.7949811 L1729.45756,25.9579444 L1729.45756,25.9579444 L1726.01027,21.7168337 C1725.9406,21.6311203 1725.95361,21.5051569 1726.03932,21.4354867 C1726.06602,21.4137884 1726.09786,21.3993426 1726.13176,21.3935452 L1730.72182,20.6087824 L1730.72182,20.6087824 L1733.83503,16.0679174 C1733.89749,15.9768155 1734.02198,15.9535961 1734.11308,16.0160555 C1734.13341,16.0299981 1734.151,16.047581 1734.16494,16.0679174 L1737.27815,20.6087824 L1737.27815,20.6087824 L1741.86821,21.3935452 C1741.97708,21.4121599 1742.05025,21.5155125 1742.03164,21.6243896 C1742.02584,21.6582986 1742.0114,21.6901389 1741.9897,21.7168337 L1738.54241,25.9579444 L1738.54241,25.9579444 L1739.4157,30.787001 C1739.43536,30.8956949 1739.36318,30.9997433 1739.25448,31.0193997 C1739.21101,31.027261 1739.16616,31.0205087 1739.12693,31.0001967 L1733.99998,28.3455896 L1733.99998,28.3455896 Z" id="收藏"></path>
        </g>
    </g>
</svg>