<?xml version="1.0" encoding="UTF-8"?>
<svg width="13px" height="15px" viewBox="0 0 13 15" version="1.1" xmlns="http://www.w3.org/2000/svg" xmlns:xlink="http://www.w3.org/1999/xlink">
    <!-- Generator: Sketch 59.1 (86144) - https://sketch.com -->
    <title>形状结合</title>
    <desc>Created with Sketch.</desc>
    <g id="患者360" stroke="none" stroke-width="1" fill="none" fill-rule="evenodd">
        <g id="02-患者卡片" transform="translate(-1172.000000, -429.000000)" fill="#7E89A4" fill-rule="nonzero">
            <g id="编组-2备份-15" transform="translate(1155.000000, 332.000000)">
                <path d="M27,97 C28.6568542,97 30,98.3431458 30,100 L30,109 C30,110.656854 28.6568542,112 27,112 L20,112 C18.3431458,112 17,110.656854 17,109 L17,100 C17,98.3431458 18.3431458,97 20,97 L27,97 Z M27,99 L20,99 C19.4477153,99 19,99.4477153 19,100 L19,109 C19,109.552285 19.4477153,110 20,110 L27,110 C27.5522847,110 28,109.552285 28,109 L28,100 C28,99.4477153 27.5522847,99 27,99 Z M25.901482,106 C26.4537668,106 26.901482,106.447715 26.901482,107 C26.901482,107.552285 26.4537668,108 25.901482,108 L25.901482,108 L21,108 C20.4477153,108 20,107.552285 20,107 C20,106.447715 20.4477153,106 21,106 L21,106 Z M23.450741,101.5 C24.0030258,101.5 24.450741,101.947715 24.450741,102.5 C24.450741,103.052285 24.0030258,103.5 23.450741,103.5 L23.450741,103.5 L21,103.5 C20.4477153,103.5 20,103.052285 20,102.5 C20,101.947715 20.4477153,101.5 21,101.5 L21,101.5 Z" id="形状结合"></path>
            </g>
        </g>
    </g>
</svg>