<?xml version="1.0" encoding="UTF-8"?>
<svg width="13px" height="16px" viewBox="0 0 13 16" version="1.1" xmlns="http://www.w3.org/2000/svg" xmlns:xlink="http://www.w3.org/1999/xlink">
    <!-- Generator: Sketch 59.1 (86144) - https://sketch.com -->
    <title>形状结合</title>
    <desc>Created with Sketch.</desc>
    <g id="患者360" stroke="none" stroke-width="1" fill="none" fill-rule="evenodd">
        <g id="02-患者卡片" transform="translate(-43.000000, -244.000000)" fill="#7E89A4" fill-rule="nonzero">
            <g id="编组-2备份-6" transform="translate(24.000000, 112.000000)">
                <g id="分组-10" transform="translate(19.000000, 132.000000)">
                    <path d="M6.61146644,0 C9.4395525,0 11.7196193,2.35037231 11.7196193,5.23512889 C11.7196193,6.60842543 11.1969645,7.89112927 10.3039053,8.84714298 L12.6577378,10.9025173 C12.8752137,11.092418 13,11.3670463 13,11.6557643 L13,15 C13,15.5522847 12.5522847,16 12,16 L1,16 C0.44771525,16 0,15.5522847 0,15 L0,11.6557643 C0,11.3556135 0.134821383,11.071336 0.367243369,10.8814136 L2.89217565,8.81817842 L2.72174427,8.62343311 C1.94948551,7.69547966 1.50331355,6.50397216 1.50331355,5.23512889 C1.50331355,2.35037231 3.78338038,0 6.61146644,0 Z M6.61146644,2 C4.90177033,2 3.50331355,3.44157795 3.50331355,5.23512889 C3.50331355,6.37691272 4.07825367,7.41083993 4.99938249,7.99547237 C5.68884029,8.43306523 5.56302461,9.38397107 4.94986491,9.71955741 L2,12.130024 L2,14 L11,14 L11,12.1101468 L8.24174783,9.70163187 L8.148553,9.63809715 C7.64603588,9.24995597 7.58363763,8.40161943 8.22355039,7.99547237 C9.14467922,7.41083993 9.71961933,6.37691272 9.71961933,5.23512889 C9.71961933,3.44157795 8.32116255,2 6.61146644,2 Z M7.5,10 L7.5,13 L5.5,13 L5.5,10 L7.5,10 Z" id="形状结合"></path>
                </g>
            </g>
        </g>
    </g>
</svg>