<?xml version="1.0" encoding="UTF-8"?>
<svg width="40px" height="40px" viewBox="0 0 40 40" version="1.1" xmlns="http://www.w3.org/2000/svg" xmlns:xlink="http://www.w3.org/1999/xlink">
    <!-- Generator: Sketch 59.1 (86144) - https://sketch.com -->
    <title>患者-女</title>
    <desc>Created with Sketch.</desc>
    <defs>
        <path d="M0.0103030303,20.6701538 C0.344242424,31.0929231 8.84909091,39.5821538 19.2921212,39.9150769 L19.2921212,39.9150769 C30.8230303,40.2830769 40.2460606,30.8763077 39.8787879,19.3661538 L39.8787879,19.3661538 C39.5448485,8.94338462 31.04,0.454153846 20.5975758,0.121230769 L20.5975758,0.121230769 C20.3787879,0.113846154 20.1618182,0.110769231 19.9448485,0.110769231 L19.9448485,0.110769231 C8.71333333,0.112 -0.35030303,9.37846154 0.0103030303,20.6701538 L0.0103030303,20.6701538 Z" id="path-1"></path>
        <path d="M9.96666667,0.190153846 C9.81757576,0.190153846 9.66666667,0.195692308 9.51393939,0.206769231 L9.51393939,0.206769231 C6.02181818,0.462153846 3.66545455,2.56307692 2.20666667,5.176 L2.20666667,5.176 C0.710909091,7.85723077 -0.108484848,10.9538462 0.660606061,14 L0.660606061,14 C0.860606061,14.7932308 1.15757576,15.5643077 1.27454545,16.3753846 L1.27454545,16.3753846 C1.57939394,18.4843077 0.324242424,20.8787692 0.167272727,23.0030769 L0.167272727,23.0030769 C0.152727273,23.1950769 0.138787879,23.3883077 0.17030303,23.5784615 L0.17030303,23.5784615 C0.361212121,24.7224615 1.50060606,25.1735385 2.49030303,25.144 L2.49030303,25.144 C7.01272727,25.0104615 11.9915152,23.8295385 16.3133333,25.7156923 L16.3133333,25.7156923 C17.6224242,26.2873846 19.4448485,27.032 20.0781818,25.1772308 L20.0781818,25.1772308 C20.7642424,23.1686154 19.4957576,21.1950769 18.9630303,19.3347692 L18.9630303,19.3347692 C18.4478788,17.5347692 18.3248485,15.8455385 18.4151515,13.9729231 L18.4151515,13.9729231 C18.5,12.2067692 18.9109091,10.3618462 18.4315152,8.656 L18.4315152,8.656 C18.0430303,7.27076923 17.4436364,5.92553846 16.6927273,4.70523077 L16.6927273,4.70523077 C15.2060606,2.288 12.8806061,0.190153846 9.96787879,0.190153846 L9.96787879,0.190153846 C9.96787879,0.190153846 9.96727273,0.190153846 9.96666667,0.190153846 L9.96666667,0.190153846 Z" id="path-3"></path>
        <path d="M1.29757576,1.25846154 C1.29757576,1.25846154 -0.0842424242,7.26153846 0.0763636364,8.208 L0.0763636364,8.208 C0.236969697,9.15446154 3.03272727,12.3187692 3.03272727,12.3187692 L3.03272727,12.3187692 C3.03272727,12.3187692 4.92787879,15.8092308 8.04484848,15.9723077 L8.04484848,15.9723077 C11.1612121,16.1353846 13.8284848,12.416 13.8284848,12.416 L13.8284848,12.416 L14.8242424,11.4055385 L16.8484848,8.30584615 L17.1054545,4.39076923 L11.9648485,0.0190769231 L1.29757576,1.25846154 Z" id="path-5"></path>
        <path d="M9.53919192,0.189538462 C9.38464646,0.189538462 9.22828283,0.195076923 9.06949495,0.206769231 L9.06949495,0.206769231 C2.55191919,0.682461538 -1.32505051,8.53046154 0.601616162,14.4732308 L0.601616162,14.4732308 C0.771313131,14.9969231 0.982828283,15.5107692 1.06646465,16.0553846 L1.06646465,16.0553846 C1.14282828,16.5550769 1.11252525,17.0818462 1.30949495,17.5458462 L1.30949495,17.5458462 C1.34282828,17.6227692 1.38222222,17.6990769 1.43858586,17.7593846 L1.43858586,17.7593846 C1.62585859,17.9581538 2.19070707,17.888 2.72222222,17.8190769 L2.72222222,17.8190769 C3.23373737,17.752 3.71494949,17.6849231 3.80040404,17.8566154 L3.80040404,17.8566154 L3.47858586,17.2049231 C3.15737374,16.552 2.73979798,15.2473846 2.73979798,15.2473846 L2.73979798,15.2473846 C2.73979798,15.2473846 1.7440404,14.7901538 1.51858586,12.9963077 L1.51858586,12.9963077 C1.29373737,11.2018462 3.0610101,10.9403077 3.0610101,10.9403077 L3.0610101,10.9403077 C3.0610101,10.9403077 3.44707071,10.7772308 4.15373737,9.96184615 L4.15373737,9.96184615 C4.86040404,9.14646154 5.11737374,7.09107692 5.11737374,7.09107692 L5.11737374,7.09107692 C5.85676768,7.97230769 7.04525253,8.82030769 10.1294949,10.264 L10.1294949,10.264 C13.2143434,11.7083077 16.7810101,12.2455385 16.7810101,12.2455385 L16.7810101,12.2455385 C16.7810101,12.2455385 17.070101,13.0283077 16.7810101,13.8443077 L16.7810101,13.8443077 C16.4913131,14.6596923 15.399798,15.3772308 15.399798,15.3772308 L15.399798,15.3772308 C15.399798,15.3772308 15.3513131,15.9163077 15.1513131,16.6627692 L15.1513131,16.6627692 C14.9519192,17.4092308 14.5955556,17.9544615 14.5955556,17.9544615 L14.5955556,17.9544615 L16.7488889,17.8566154 C16.7488889,17.8566154 18.6767677,14.04 18.3870707,10.6750769 L18.3870707,10.6750769 C18.1058586,7.40246154 15.0585859,0.190153846 9.53979798,0.189538462 L9.53979798,0.189538462 C9.53979798,0.189538462 9.53979798,0.189538462 9.53919192,0.189538462 L9.53919192,0.189538462 Z" id="path-7"></path>
        <path d="M3.52606061,0.411076923 C3.4630303,0.411076923 3.40181818,0.432615385 3.34181818,0.478769231 L3.34181818,0.478769231 C2.28424242,1.29292308 0.126060606,3.87323077 0.0454545455,6.00984615 L0.0454545455,6.00984615 C-0.0345454545,8.14646154 2.05393939,8.78276923 2.05393939,8.78276923 L2.05393939,8.78276923 L5.05818182,8.78276923 L5.98969697,6.44984615 C5.98969697,6.44984615 4.57454545,0.411076923 3.52606061,0.411076923 L3.52606061,0.411076923 C3.52606061,0.411076923 3.52606061,0.411076923 3.52606061,0.411076923 L3.52606061,0.411076923 Z" id="path-9"></path>
        <path d="M0.121010101,6.44984615 L1.05252525,8.78276923 L4.05737374,8.78276923 C4.05737374,8.78276923 6.14585859,8.14646154 6.06525253,6.00984615 L6.06525253,6.00984615 C5.98464646,3.87323077 3.82707071,1.29292308 2.76949495,0.478769231 L2.76949495,0.478769231 C2.70949495,0.432615385 2.64767677,0.411076923 2.58525253,0.411076923 L2.58525253,0.411076923 C1.53676768,0.410461538 0.121010101,6.44984615 0.121010101,6.44984615 L0.121010101,6.44984615 Z" id="path-11"></path>
        <path d="M13.9478788,0.369846154 C12.6206061,0.889846154 11.150303,1.29969231 9.91333333,2.00307692 L9.91333333,2.00307692 C9.69636364,2.12615385 9.45818182,2.25353846 9.21272727,2.21415385 L9.21272727,2.21415385 C9.07333333,2.19138462 8.94848485,2.11692308 8.82787879,2.04369231 L8.82787879,2.04369231 C7.93878788,1.50646154 7.22787879,1.17292308 6.2369697,0.931692308 L6.2369697,0.931692308 C5.69090909,0.798153846 5.14484848,0.664 4.59818182,0.530461538 L4.59818182,0.530461538 C4.59818182,0.530461538 3.56969697,0.434461538 2.06,0.980923077 L2.06,0.980923077 C0.54969697,1.52676923 0.311515152,1.688 0.311515152,1.688 L0.311515152,1.688 C0.311515152,1.688 1.25636364,3.16676923 1.61030303,5.77046154 L1.61030303,5.77046154 C1.9630303,8.37415385 1.9630303,10.0135385 1.9630303,10.0135385 L1.9630303,10.0135385 L17.3854545,10.0135385 C17.3854545,10.0135385 17.2254545,7.57046154 17.610303,5.64246154 L17.610303,5.64246154 C17.9957576,3.71323077 18.8612121,1.688 18.8612121,1.688 L18.8612121,1.688 C18.8612121,1.688 17.2254545,0.402461538 15.7793939,0.305846154 L15.7793939,0.305846154 C15.4454545,0.283692308 15.1684848,0.275076923 14.9393939,0.275076923 L14.9393939,0.275076923 C14.1757576,0.275076923 13.9478788,0.369846154 13.9478788,0.369846154 L13.9478788,0.369846154 Z" id="path-13"></path>
        <path d="M4.69454545,1.47076923 L2.87030303,1.32369231 L0.203636364,0.932307692 C0.203636364,0.932307692 0.0751515152,4.87938462 1.13575758,5.63015385 L1.13575758,5.63015385 C2.19575758,6.38030769 6.88666667,6.64123077 7.40121212,5.63015385 L7.40121212,5.63015385 C7.91515152,4.61846154 7.8830303,0.442461538 7.8830303,0.442461538 L7.8830303,0.442461538 L4.69454545,1.47076923 Z" id="path-15"></path>
        <path d="M0.0852525253,0.582769231 C1.45494949,1.81538462 3.09676768,2.63692308 4.84525253,3.24553846 L4.84525253,3.24553846 L5.67616162,2.34523077 L5.67616162,0.328615385 C4.81010101,0.868307692 3.80646465,1.25784615 2.75191919,1.20307692 L2.75191919,1.20307692 C1.7210101,1.14953846 0.824646465,0.730461538 0.0852525253,0.194461538 L0.0852525253,0.194461538 L0.0852525253,0.582769231 Z" id="path-17"></path>
    </defs>
    <g id="患者360" stroke="none" stroke-width="1" fill="none" fill-rule="evenodd">
        <g id="02-患者卡片" transform="translate(-794.000000, -349.000000)">
            <g id="编组-2备份-13" transform="translate(778.000000, 332.000000)">
                <g id="患者-女" transform="translate(16.000000, 17.000000)">
                    <g id="分组">
                        <g>
                            <mask id="mask-2" fill="white">
                                <use xlink:href="#path-1"></use>
                            </mask>
                            <g id="Clip-2"></g>
                            <polygon id="Fill-1" fill="#FFABC5" mask="url(#mask-2)" points="-0.0303030303 40.0338462 39.969697 40.0338462 39.969697 0.0338461538 -0.0303030303 0.0338461538"></polygon>
                        </g>
                        <g transform="translate(10.303030, 3.692308)">
                            <mask id="mask-4" fill="white">
                                <use xlink:href="#path-3"></use>
                            </mask>
                            <g id="Clip-4"></g>
                            <polygon id="Fill-3" fill="#834043" mask="url(#mask-4)" points="-2.87878788 29.4350769 23.3078788 29.4350769 23.3078788 -2.88676923 -2.87878788 -2.88676923"></polygon>
                        </g>
                        <polygon id="Fill-5" fill="#FFD8E4" points="16.8930909 23.6702769 16.8930909 26.1816615 19.624 29.4444308 22.484 26.3453538 22.484 22.8868923"></polygon>
                        <g transform="translate(11.515152, 9.230769)">
                            <mask id="mask-6" fill="white">
                                <use xlink:href="#path-5"></use>
                            </mask>
                            <g id="Clip-7"></g>
                            <polygon id="Fill-6" fill="#FFE2EB" mask="url(#mask-6)" points="-2.96727273 19.0547692 20.1351515 19.0547692 20.1351515 -3.05784615 -2.96727273 -3.05784615"></polygon>
                        </g>
                        <g transform="translate(10.747475, 3.692308)">
                            <mask id="mask-8" fill="white">
                                <use xlink:href="#path-7"></use>
                            </mask>
                            <g id="Clip-9"></g>
                            <polygon id="Fill-8" fill="#834043" mask="url(#mask-8)" points="-2.92383838 21.032 21.4470707 21.032 21.4470707 -2.88738462 -2.92383838 -2.88738462"></polygon>
                        </g>
                        <g transform="translate(7.272727, 27.692308)">
                            <mask id="mask-10" fill="white">
                                <use xlink:href="#path-9"></use>
                            </mask>
                            <g id="Clip-11"></g>
                            <polygon id="Fill-10" fill="#EA86A5" mask="url(#mask-10)" points="-2.98666667 11.8596923 9.02 11.8596923 9.02 -2.66646154 -2.98666667 -2.66646154"></polygon>
                        </g>
                        <g transform="translate(26.505051, 27.692308)">
                            <mask id="mask-12" fill="white">
                                <use xlink:href="#path-11"></use>
                            </mask>
                            <g id="Clip-13"></g>
                            <polygon id="Fill-12" fill="#EA86A5" mask="url(#mask-12)" points="-2.90868687 11.8596923 9.09858586 11.8596923 9.09858586 -2.66646154 -2.90868687 -2.66646154"></polygon>
                        </g>
                        <g transform="translate(10.303030, 26.461538)">
                            <mask id="mask-14" fill="white">
                                <use xlink:href="#path-13"></use>
                            </mask>
                            <g id="Clip-15"></g>
                            <polygon id="Fill-14" fill="#EA86A5" mask="url(#mask-14)" points="-2.71878788 13.0904615 21.8915152 13.0904615 21.8915152 -2.80184615 -2.71878788 -2.80184615"></polygon>
                        </g>
                        <g transform="translate(15.757576, 27.076923)">
                            <mask id="mask-16" fill="white">
                                <use xlink:href="#path-15"></use>
                            </mask>
                            <g id="Clip-17"></g>
                            <polygon id="Fill-16" fill="#EA86A5" mask="url(#mask-16)" points="-2.83151515 9.37107692 10.9133333 9.37107692 10.9133333 -2.63446154 -2.83151515 -2.63446154"></polygon>
                        </g>
                        <polygon id="Fill-18" fill="#834043" points="19.8134545 28.7656615 17.017697 26.3515077 15.0261818 27.4610462 17.7570909 31.5385846 19.7492121 29.0265846 21.8698182 31.5385846 24.3764848 27.2973538 22.6086061 26.3515077"></polygon>
                        <g transform="translate(16.808081, 24.000000)">
                            <mask id="mask-18" fill="white">
                                <use xlink:href="#path-17"></use>
                            </mask>
                            <g id="Clip-20"></g>
                            <polygon id="Fill-19" fill="#EAA2B9" mask="url(#mask-18)" points="-2.94505051 6.32246154 8.70646465 6.32246154 8.70646465 -2.88184615 -2.94505051 -2.88184615"></polygon>
                        </g>
                    </g>
                </g>
            </g>
        </g>
    </g>
</svg>