<?xml version="1.0" encoding="UTF-8"?>
<svg width="18px" height="19px" viewBox="0 0 18 19" version="1.1" xmlns="http://www.w3.org/2000/svg" xmlns:xlink="http://www.w3.org/1999/xlink">
    <!-- Generator: Sketch 59.1 (86144) - https://sketch.com -->
    <title>密码</title>
    <desc>Created with Sketch.</desc>
    <g id="患者360" stroke="none" stroke-width="1" fill="none" fill-rule="evenodd">
        <g id="01-登录页" transform="translate(-1251.000000, -540.000000)" fill="#7E89A4">
            <g id="Group-7" transform="translate(1251.000000, 536.000000)">
                <g id="密码" transform="translate(0.000000, 4.000000)">
                    <path d="M8.52631579,-1.91846539e-13 C10.8807929,-1.91846539e-13 12.7894737,1.9086808 12.7894737,4.26315789 C12.7894737,4.51440419 12.7677395,4.7605742 12.7260486,4.99989034 L15.0526316,5 C16.1572011,5 17.0526316,5.8954305 17.0526316,7 L17.0526316,16.2631579 C17.0526316,17.3677274 16.1572011,18.2631579 15.0526316,18.2631579 L2,18.2631579 C0.8954305,18.2631579 -8.51298575e-14,17.3677274 -8.52651283e-14,16.2631579 L-8.52651283e-14,7 C-8.5400399e-14,5.8954305 0.8954305,5 2,5 L4.32658294,4.99989034 C4.2848921,4.7605742 4.26315789,4.51440419 4.26315789,4.26315789 C4.26315789,1.9086808 6.1718387,-1.91846539e-13 8.52631579,-1.91846539e-13 Z M8.52631579,8.52631579 C7.47988153,8.52631579 6.63157895,9.37461837 6.63157895,10.4210526 C6.63157895,11.0433623 6.93159189,11.5956002 7.39487281,11.9410214 L7.52516738,12.0299967 L7.52631579,14.2105263 L7.53304352,14.3271474 C7.59080863,14.8244861 8.01347995,15.2105263 8.52631579,15.2105263 C9.03915163,15.2105263 9.46182295,14.8244861 9.51958806,14.3271474 L9.52631579,14.2105263 L9.52645417,12.0306261 C10.0635643,11.6961751 10.4210526,11.1003618 10.4210526,10.4210526 C10.4210526,9.37461837 9.57275005,8.52631579 8.52631579,8.52631579 Z M8.52631579,2 C7.2764082,2 6.26315789,3.0132503 6.26315789,4.26315789 C6.26315789,4.52098801 6.30627288,4.76874808 6.38568636,4.99962162 L10.6669452,4.99962162 C10.7463587,4.76874808 10.7894737,4.52098801 10.7894737,4.26315789 C10.7894737,3.0132503 9.77622338,2 8.52631579,2 Z" id="形状结合"></path>
                </g>
            </g>
        </g>
    </g>
</svg>