<?xml version="1.0" encoding="UTF-8"?>
<svg width="18px" height="18px" viewBox="0 0 18 18" version="1.1" xmlns="http://www.w3.org/2000/svg" xmlns:xlink="http://www.w3.org/1999/xlink">
    <!-- Generator: Sketch 59.1 (86144) - https://sketch.com -->
    <title>关闭</title>
    <desc>Created with Sketch.</desc>
    <g id="患者360" stroke="none" stroke-width="1" fill="none" fill-rule="evenodd">
        <g id="01-登录页" transform="translate(-1629.000000, -541.000000)" fill="#7E89A4" fill-rule="nonzero">
            <g id="分组-5-copy-3" transform="translate(1629.000000, 541.000000)">
                <path d="M9,0 C13.9705627,0 18,4.02943725 18,9 C18,13.9705627 13.9705627,18 9,18 C4.02943725,18 0,13.9705627 0,9 C0,4.02943725 4.02943725,0 9,0 Z M9,1.5 C4.85786438,1.5 1.5,4.85786438 1.5,9 C1.5,13.1421356 4.85786438,16.5 9,16.5 C13.1421356,16.5 16.5,13.1421356 16.5,9 C16.5,4.85786438 13.1421356,1.5 9,1.5 Z M4.98483496,4.98483496 C5.27772818,4.69194174 5.75260191,4.69194174 6.04549513,4.98483496 L6.04549513,4.98483496 L8.819,7.758 L11.5017758,5.07662286 C11.7680424,4.81035629 12.1847061,4.78615024 12.4783176,5.0040047 L12.562436,5.07662286 C12.8553292,5.36951608 12.8553292,5.84438981 12.562436,6.13728303 L12.562436,6.13728303 L9.88,8.819 L12.4706481,11.4099879 C12.7369147,11.6762545 12.7611207,12.0929182 12.5432662,12.3865297 L12.4706481,12.4706481 C12.1777549,12.7635413 11.7028811,12.7635413 11.4099879,12.4706481 L11.4099879,12.4706481 L8.819,9.88 L6.13728303,12.562436 C5.87101647,12.8287026 5.45435278,12.8529086 5.16074129,12.6350541 L5.07662286,12.562436 C4.78372964,12.2695428 4.78372964,11.794669 5.07662286,11.5017758 L5.07662286,11.5017758 L7.758,8.819 L4.98483496,6.04549513 C4.71856839,5.77922857 4.69436234,5.36256488 4.9122168,5.06895339 Z" id="关闭"></path>
            </g>
        </g>
    </g>
</svg>