<?xml version="1.0" encoding="UTF-8"?>
<svg width="18px" height="21px" viewBox="0 0 18 21" version="1.1" xmlns="http://www.w3.org/2000/svg" xmlns:xlink="http://www.w3.org/1999/xlink">
    <!-- Generator: Sketch 59.1 (86144) - https://sketch.com -->
    <title>账号</title>
    <desc>Created with Sketch.</desc>
    <g id="患者360" stroke="none" stroke-width="1" fill="none" fill-rule="evenodd">
        <g id="01-登录页" transform="translate(-1251.000000, -438.000000)" fill="#7E89A4">
            <g id="账号" transform="translate(1251.000000, 438.000000)">
                <path d="M8.59090909,0.462354484 C11.7539945,0.462354484 14.3181818,3.02654183 14.3181818,6.18962721 C14.3181818,8.29627283 13.1807879,10.1372659 11.4865883,11.1320182 C14.412141,12.2698184 16.6047871,15.1006411 17.0839565,18.6337982 C17.1484724,19.1095065 17.1484724,20.0961823 16.2484496,20.0977764 C12.3284615,20.1047196 5.44870638,20.1417592 0.984884409,20.1302846 C0.0362445209,20.1278461 0.0362445209,19.0940622 0.106036943,18.5976123 C0.601270746,15.0748979 2.78565906,12.2650019 5.69575934,11.1304634 C4.00103025,10.1372659 2.86363636,8.29627283 2.86363636,6.18962721 C2.86363636,3.02654183 5.42782371,0.462354484 8.59090909,0.462354484 Z M11.4822234,11.1386051 C10.5152964,11.5906285 9.55320473,11.8166403 8.59594851,11.8166403 C7.63869229,11.8166403 6.67660066,11.5906285 5.70967361,11.1386051 C7.00841183,12.89687 7.97050346,13.7760024 8.59594851,13.7760024 C9.22139355,13.7760024 10.1834852,12.89687 11.4822234,11.1386051 Z" id="形状结合"></path>
            </g>
        </g>
    </g>
</svg>