<?xml version="1.0" encoding="UTF-8"?>
<svg width="136px" height="70px" viewBox="0 0 136 70" version="1.1" xmlns="http://www.w3.org/2000/svg" xmlns:xlink="http://www.w3.org/1999/xlink">
    <!-- Generator: Sketch 59.1 (86144) - https://sketch.com -->
    <title>资源 1</title>
    <desc>Created with Sketch.</desc>
    <g id="患者360" stroke="none" stroke-width="1" fill="none" fill-rule="evenodd">
        <g id="01-登录页" transform="translate(-120.000000, -118.000000)" fill="#2D5AFA" fill-rule="nonzero">
            <g id="资源-1" transform="translate(120.000000, 118.000000)">
                <path d="M30.681,30.436 L30.765,30.527 C31.1173861,30.9495087 31.4961421,31.3493067 31.899,31.724 L31.997,31.815 C32.8829743,32.6380773 33.8710703,33.3438602 34.937,33.915 L35.084,33.992 C35.6177243,34.2725814 36.1669405,34.52265 36.729,34.741 L36.771,34.741 C37.363856,34.966856 37.9691844,35.1585044 38.584,35.315 L38.801,35.364 C39.3283333,35.4806667 39.8603333,35.5786667 40.397,35.658 L40.824,35.714 C41.4537396,35.786799 42.0870691,35.8241911 42.721,35.82604 C44.1886442,35.8292165 45.6502842,35.6385678 47.068,35.259 L47.068,35.259 L47.257,35.203 C47.649,35.091 48.034,34.972 48.412,34.839 L48.685,34.72 C49.028,34.594 49.385,34.461 49.693,34.307 L49.952,34.174 C50.281,34.013 50.603,33.852 50.911,33.67 L51.1,33.6 C51.429,33.397 51.758,33.194 52.073,32.97 L52.115,32.97 C52.423,32.753 52.724,32.529 53.004,32.27 L53.004,32.27 C52.787,32.046 52.563,31.829 52.367,31.57 C51.4475986,30.4502292 50.7363524,29.1747275 50.267,27.804 C48.3530597,29.9634268 45.5847155,31.1696157 42.7,31.101 C39.56015,31.1668354 36.58509,29.6988954 34.727,27.167 L32.466,28 L29.666,29.015 L29.666,29.064 C29.9724696,29.5440687 30.3116036,30.0024843 30.681,30.436 Z" id="路径"></path>
                <path d="M42.364,10.395 L38.647,15.939 L38.941,15.813 L38.941,15.813 C40.1405966,15.3515677 41.4147179,15.1143011 42.7,15.113 C46.9,15.113 50.4,17.514 51.583,20.804 C51.7967553,21.4367428 51.9193189,22.0967006 51.947,22.764 C51.947,22.841 51.947,22.918 51.947,22.995 C51.947,23.072 51.947,23.254 51.947,23.38 C52.0634066,25.9750866 53.0496604,28.455515 54.747,30.422 L54.747,30.422 C55.1410338,30.8849511 55.5667232,31.3199964 56.021,31.724 C56.14,31.836 56.28,31.934 56.406,32.046 L56.406,32.102 C57.3535795,32.8751606 58.3927263,33.5287416 59.5,34.048 L59.549,34.048 C59.913,34.2253333 60.284,34.3863333 60.662,34.531 L60.963,34.65 L61.278,34.776 C61.509,34.853 61.747,34.916 61.978,34.986 L62.356,35.098 C62.699,35.189 63.056,35.266 63.399,35.336 C63.525,35.336 63.644,35.399 63.77,35.42 C64.211,35.497 64.652,35.56 65.107,35.602 L65.219,35.602 C65.723,35.651 66.234,35.6790008 66.752,35.6790008 C67.7757611,35.6790008 68.7973873,35.5855953 69.804,35.399 L69.986,35.357 C70.413,35.28 70.833,35.182 71.246,35.07 L71.477,35 C71.869,34.881 72.254,34.762 72.632,34.622 L72.849,34.531 C73.22,34.384 73.591,34.23 73.948,34.055 L74.137,33.957 C74.494,33.775 74.837,33.586 75.18,33.383 L75.355,33.271 C75.691,33.068 76.055,32.851 76.328,32.62 L76.51,32.48 C76.811,32.249 77.098,32.018 77.378,31.78 L77.434,31.738 L77.434,31.738 C78.1142471,31.1243655 78.7288816,30.4416988 79.268,29.701 C81.984,33.376 85.974,35.672 90.468,35.672 C98.868,35.672 105.42,27.832 105.42,17.829 C105.42,7.826 98.84,0 90.454,0 C84.301,0 79.135,4.235 76.818,10.444 C78.6187978,11.5278789 80.1448175,13.0131728 81.277,14.784 C82.299,9.1 86.1,4.718 90.454,4.718 C95.585,4.718 99.918,10.731 99.918,17.85 C99.918,24.969 95.585,30.975 90.454,30.975 C87.08,30.975 84.049,28.357 82.376,24.542 C81.8473696,23.335184 81.4688728,22.0680423 81.249,20.769 C81.249,20.692 81.249,20.615 81.207,20.538 C80.6382452,18.1936839 79.3888447,16.0699466 77.616,14.434 L77.616,14.434 L77.469,14.308 C77.231,14.091 76.986,13.881 76.727,13.678 L76.405,13.419 L76.02,13.153 L75.614,12.873 C75.488,12.789 75.362,12.698 75.229,12.621 C74.97,12.46 74.704,12.313 74.431,12.173 L73.962,11.921 C73.71,11.802 73.451,11.69 73.192,11.585 L72.611,11.34 C72.38,11.249 72.142,11.179 71.911,11.102 C71.68,11.025 71.442,10.941 71.211,10.878 C70.98,10.815 70.798,10.78 70.588,10.731 C70.378,10.682 70.035,10.591 69.748,10.542 L69.23,10.5 C68.901,10.451 68.572,10.395 68.229,10.367 L68.04,10.367 C67.606,10.332 67.172,10.304 66.731,10.304 L66.451,10.304 C66.017,10.304 65.583,10.304 65.156,10.367 L66.605,8.204 L68.635,5.173 L72.009,0.133 L71.96,0.133 L65.24,0.133 L56.231,13.489 L56.147,13.615 C56.245,13.699 56.329,13.797 56.427,13.881 C57.7184377,15.0317133 58.7637364,16.4317944 59.5,17.997 L59.5,17.997 C60.3741069,17.0590925 61.4353091,16.3150585 62.615,15.813 L62.72,15.771 C62.965,15.666 63.217,15.575 63.476,15.491 L63.721,15.414 L64.421,15.239 L64.757,15.169 C64.9582465,15.1279102 65.1615326,15.0975341 65.366,15.078 L65.772,15.022 C65.961,15.022 66.157,15.022 66.353,15.022 L66.759,15.022 L67.081,15.022 C67.326,15.022 67.571,15.022 67.781,15.064 C67.991,15.106 68.124,15.106 68.292,15.134 L68.824,15.218 L69.335,15.337 L69.832,15.477 L70.322,15.631 C70.602,15.736 70.882,15.848 71.155,15.974 C71.302,16.044 71.442,16.128 71.582,16.205 C71.722,16.282 71.883,16.359 72.023,16.45 C72.163,16.541 72.303,16.618 72.436,16.709 C72.569,16.8 72.709,16.898 72.842,17.003 L73.206,17.283 L73.619,17.661 C73.745,17.787 73.871,17.906 73.983,18.032 C74.095,18.158 74.312,18.396 74.459,18.585 C75.1093294,19.4288585 75.5701269,20.4029796 75.81,21.441 C75.852,21.63 75.894,21.819 75.922,22.008 C75.9772276,22.3389338 76.0076456,22.6735323 76.013,23.009 C75.9939315,24.7827435 75.3266701,26.4882437 74.137,27.804 L73.836,28.14 L73.5,28.462 L73.136,28.777 C73.024,28.875 72.905,28.966 72.779,29.057 C72.653,29.148 72.485,29.267 72.338,29.365 L71.995,29.582 C71.7560925,29.7301069 71.5082901,29.8633591 71.253,29.981 L71.05,30.079 C70.784,30.198 70.504,30.31 70.224,30.408 L69.916,30.506 C69.685,30.583 69.454,30.646 69.216,30.702 L68.894,30.772 C68.628,30.828 68.362,30.87 68.096,30.905 L67.844,30.905 C67.487,30.905 67.144,30.961 66.745,30.961 L66.5,30.961 C66.129,30.961 65.8,30.961 65.415,30.884 C65.24,30.884 65.072,30.828 64.904,30.8 C64.631,30.751 64.358,30.695 64.092,30.625 C63.938,30.59 63.777,30.548 63.63,30.499 C63.2697014,30.3881414 62.9166805,30.2548819 62.573,30.1 L62.258,29.946 C61.9694291,29.8133246 61.6889413,29.6637311 61.418,29.498 C61.2058597,29.3732884 61.0002563,29.237777 60.802,29.092 L60.683,29.008 C60.1693286,28.6221875 59.6998183,28.1808478 59.283,27.692 C58.2194889,26.4591389 57.5770095,24.9191499 57.449,23.296 L57.449,23.296 C57.4524693,23.2283778 57.4524693,23.1606222 57.449,23.093 C57.4116419,20.4238753 56.4436111,17.8515377 54.712,15.82 L54.635,15.715 L54.635,15.715 C54.46,15.505 54.257,15.323 54.075,15.127 C54.0604769,15.1089516 54.0440484,15.0925231 54.026,15.078 C52.4827232,13.441013 50.5799576,12.1852836 48.468,11.41 L48.468,11.41 L52.668,5.173 L56.042,0.105 L56,0.077 L35.133,0.077 L31.801,5.145 L45.871,5.145 L42.364,10.395 Z" id="路径"></path>
                <path d="M110.355,23.548 C120.568,27.048 126.091,29.015 126.091,34.3 C126.091,42.294 111.657,49.161 91.007,52.178 L97.216,56.91 L91.833,62.58 C117.124,59.08 135.079038,50.197 135.079038,39.809 C135.1,32.074 126.329,27.118 110.355,23.548 Z" id="路径"></path>
                <path d="M77.959,46.991 L78.302,53.48 C74.802,53.697 71.218,53.816 67.536,53.816 C35.203,53.816 8.988,45.08 8.988,34.3 C8.988,29.015 14.476,27.062 24.696,23.548 C8.617,27.489 0,32.074 0,39.809 C0,53.291 30.24,64.218 67.536,64.218 C71.4,64.218 75.18,64.092 78.862,63.868 L79.177,69.762 L84.875,63.756 L91.175,57.085 L84.175,51.765 L77.959,46.991 Z" id="路径"></path>
            </g>
        </g>
    </g>
</svg>