<?xml version="1.0" encoding="UTF-8"?>
<svg width="20px" height="18px" viewBox="0 0 20 18" version="1.1" xmlns="http://www.w3.org/2000/svg" xmlns:xlink="http://www.w3.org/1999/xlink">
    <!-- Generator: Sketch 59.1 (86144) - https://sketch.com -->
    <title>皮肤 (1)</title>
    <desc>Created with Sketch.</desc>
    <g id="患者360" stroke="none" stroke-width="1" fill="none" fill-rule="evenodd">
        <g id="02-患者卡片" transform="translate(-1790.000000, -15.000000)" fill="#FFFFFF" fill-rule="nonzero">
            <g id="皮肤-(1)" transform="translate(1790.000000, 15.000000)">
                <path d="M5.46465969,0 L4.7447644,0 C4.28664921,0 3.95942408,0.130890052 3.73036649,0.392670157 L0.392670157,3.69764398 C-0.130890052,4.22120419 -0.130890052,5.03926702 0.392670157,5.53010471 L2.32329843,7.46073298 C2.55235602,7.68979058 2.87958115,7.82068063 3.17408377,7.82068063 C3.46858639,7.82068063 3.79581152,7.68979058 4.02486911,7.46073298 L4.05759162,7.46073298 C4.09031414,7.46073298 4.09031414,7.46073298 4.09031414,7.4934555 L4.09031414,14.3979058 C4.09031414,15.8376963 5.26832461,17.0157068 6.70811518,17.0157068 L13.2526178,17.0157068 C14.6924084,17.0157068 15.8704188,15.8376963 15.8704188,14.3979058 L15.8704188,7.4934555 C15.8704188,7.46073298 15.8704188,7.46073298 15.9031414,7.46073298 L15.9358639,7.46073298 C16.1649215,7.68979058 16.4921466,7.82068063 16.7866492,7.82068063 C17.1138743,7.82068063 17.408377,7.68979058 17.6374346,7.46073298 L19.5680628,5.53010471 C20.091623,5.0065445 20.091623,4.18848168 19.5680628,3.69764398 L16.263089,0.392670157 C16.0013089,0.130890052 15.6740838,0 15.3141361,0 L14.4960733,0 C14.0379581,0 13.645288,0.229057592 13.3835079,0.621727749 C12.6963351,1.63612565 11.4201571,2.29057592 9.94764398,2.29057592 C8.47513089,2.29057592 7.19895288,1.60340314 6.5117801,0.621727749 C6.31544503,0.229057592 5.89005236,0 5.46465969,0 Z M17.627499,4.90770625 L16.3394919,6.20537657 C16.1130768,6.00485574 15.8583599,5.91891824 15.575341,5.91891824 C14.0860412,5.66850089 13.9622642,7.15104167 13.9622642,7.80989583 L13.9622642,13.8541667 C13.9622642,14.484375 13.4528302,15 12.8301887,15 L7.16981132,15 C6.54716981,15 6.03773585,14.484375 6.03773585,13.8541667 L6.03773585,7.80989583 C6.03773585,7.15104167 6.1778612,5.84736164 4.9694634,5.91891824 C4.68644453,5.91891824 4.40342566,6.03350157 4.20531246,6.20537657 L2.64710367,4.90770625 L5.06714726,2.39583333 L5.77469443,2.39583333 L5.80299632,2.42447917 C6.59544915,3.62760417 8.38679245,4.40104167 10,4.40104167 C11.6132075,4.40104167 13.6562854,3.65625 14.4487383,2.42447917 C14.4487383,2.39583333 14.4770402,2.39583333 14.4770402,2.39583333 L15.1562854,2.39583333 L17.627499,4.90770625 Z" id="形状"></path>
            </g>
        </g>
    </g>
</svg>