<?xml version="1.0" encoding="UTF-8"?>
<svg width="89px" height="28px" viewBox="0 0 89 28" version="1.1" xmlns="http://www.w3.org/2000/svg" xmlns:xlink="http://www.w3.org/1999/xlink">
    <!-- Generator: Sketch 59.1 (86144) - https://sketch.com -->
    <title>win-logo</title>
    <desc>Created with Sketch.</desc>
    <defs>
        <polygon id="path-1" points="-1.89018939e-13 3.29603012e-14 14 3.29603012e-14 14 13 -1.89018939e-13 13"></polygon>
        <polygon id="path-3" points="0 0 14 0 14 13 0 13"></polygon>
    </defs>
    <g id="患者360" stroke="none" stroke-width="1" fill="none" fill-rule="evenodd">
        <g id="02-患者卡片" transform="translate(-24.000000, -10.000000)">
            <g id="顶部">
                <g id="win-logo" transform="translate(24.000000, 10.000000)">
                    <path d="M13.3731865,13 C13.7193242,13 14,12.7395729 14,12.4179526 L13.9986864,0.583260466 C13.9986864,0.0646426361 13.3234881,-0.194971228 12.9287466,0.171578339 L0.184925799,12.005254 C-0.210034563,12.3720069 0.0695465803,12.9987802 0.62805206,12.9987802 L13.3731865,13 Z" id="Fill-1" fill="#FFFFFF"></path>
                    <g id="Group-5" transform="translate(16.000000, 0.000000)">
                        <mask id="mask-2" fill="white">
                            <use xlink:href="#path-1"></use>
                        </mask>
                        <g id="Clip-4"></g>
                        <path d="M8.17458817,12.8373579 C8.28676653,12.9415219 8.43874306,13 8.59706106,13 L13.4012689,13 C13.9335148,13 14.2002937,12.4022242 13.8237418,12.0529803 L1.01988281,0.163658983 C0.643549554,-0.185991104 -1.89018939e-13,0.0617284698 -1.89018939e-13,0.556152374 L-1.89018939e-13,5.01693215 C-1.89018939e-13,5.16414255 0.0629773264,5.30505844 0.174937018,5.40922249 L8.17458817,12.8373579 Z" id="Fill-3" fill="#FFFFFF" mask="url(#mask-2)"></path>
                    </g>
                    <path d="M5.8263251,15.162006 C5.71460553,15.0580623 5.56309543,15 5.40524508,15 L0.596930951,15 C0.0660990177,15 -0.199535578,15.595849 0.175632295,15.9442228 L12.9831551,27.8370445 C13.358323,28.1852152 14,27.938552 14,27.4458345 L14,22.9809257 C14,22.8341458 13.9372534,22.6936594 13.8255338,22.5899188 L5.8263251,15.162006 Z" id="Fill-6" fill="#FFFFFF"></path>
                    <path d="M29.406212,15 L24.5913326,15 C24.4341807,15 24.2833674,15.0578427 24.1723338,15.1611478 L16.1735446,22.588559 C16.062511,22.6916611 16,22.8317014 16,22.9776274 L16,27.4485652 C16,27.9389092 16.6384431,28.1842841 17.0117607,27.8378366 L29.8252108,15.9394876 C30.1985284,15.5928371 29.9342772,15 29.406212,15" id="Fill-8" fill="#FFFFFF"></path>
                    <path d="M55.71169,8.01134663 L52.9630035,8.00972569 C52.8038529,8.00972569 52.6744746,8.12927057 52.6742557,8.2767768 L52.6690018,16.1610659 C52.6690018,16.39894 52.3579247,16.517877 52.1764448,16.3492985 L48.6784151,13.1078085 L48.6711909,13.1138871 L48.4343257,12.8946539 C47.7942207,12.2647131 46.9299475,11.9176277 46.0017513,11.9170199 C45.0735552,11.9166146 44.2095009,12.2624843 43.5685201,12.891412 L43.3334063,13.1219918 L43.318958,13.108619 L39.8211471,16.3418016 C39.6392294,16.5097723 39.3285902,16.39043 39.3288091,16.1527586 L39.334063,8.26887468 C39.334063,8.12157107 39.2051226,8.00182357 39.0457531,8.00162095 L36.2970665,8 C36.137697,8 36.0085377,8.11954489 36.0083187,8.26725374 L36,20.721602 C36,20.8691082 36.1289405,20.9888557 36.28831,20.9890583 L39.3787215,20.9906793 C39.4553415,20.9908819 39.5286778,20.9627179 39.5827496,20.9126712 L45.7948774,15.1700591 C45.9076182,15.0659132 46.0904116,15.0659132 46.2029335,15.1704643 L52.4078371,20.9201681 C52.4619089,20.9700122 52.5352452,20.9983788 52.6118651,20.9983788 L55.7029335,21 C55.862303,21.0002024 55.9914623,20.8808601 55.9916813,20.7333539 L56,8.27860037 C56,8.13109414 55.8710595,8.01154925 55.71169,8.01134663" id="Fill-10" fill="#FFFFFF"></path>
                    <path d="M66.3397608,8 C66.1574323,8 66.0097632,8.11940548 66.0097632,8.26663933 L66,20.7315841 C66,20.878818 66.1474249,20.9984208 66.3295094,20.9984208 L69.660483,21 C69.8425674,21.0001971 69.9902365,20.880989 69.9904805,20.7337551 L70,8.26881034 C70.0002438,8.12137912 69.8525748,8.00197364 69.6704903,8.00177628 L66.3397608,8 Z" id="Fill-12" fill="#FFFFFF"></path>
                    <path d="M61.0011985,18 C59.8966925,17.9995208 59.0007195,18.8942954 59,19.9990411 C58.9992814,21.1033075 59.8940558,21.9995202 60.9988015,22 C62.1033075,22.0007186 62.9992805,21.1059441 63,20.001438 C63.0007186,18.8966923 62.1057045,18.000959 61.0011985,18" id="Fill-14" fill="#FFFFFF"></path>
                    <g id="n" transform="translate(75.000000, 8.000000)">
                        <mask id="mask-4" fill="white">
                            <use xlink:href="#path-3"></use>
                        </mask>
                        <g id="Clip-17"></g>
                        <path d="M9.37664238,0.00529579494 L0.264505978,0 C0.123168674,0 0.00845095225,0.106112039 0.00845095225,0.23752621 L0,12.7544318 C-0.000210975186,12.8858459 0.114506747,12.9923502 0.255844051,12.9923502 L3.21758944,12.9941155 C3.35892674,12.9941155 3.47364446,12.8878073 3.47385573,12.7565893 L3.47998246,3.46462673 C3.47998246,3.33321256 3.59470018,3.22690438 3.73603748,3.22710052 L8.82312409,3.22984649 C9.76410518,3.23043491 10.5263548,3.93928687 10.525721,4.81270076 L10.5206506,12.7605121 C10.5204393,12.8919263 10.6349458,12.9982345 10.7762831,12.9984306 L13.7382397,13 C13.8793658,13.0001959 13.9940835,12.8938877 13.9942948,12.7626697 L14,4.30273532 C14.0016891,1.93080761 11.9316997,0.00666877881 9.37664238,0.00529579494" id="Fill-16" fill="#FFFFFF" mask="url(#mask-4)"></path>
                    </g>
                </g>
            </g>
        </g>
    </g>
</svg>